<svg width="1920" height="1424" viewBox="0 0 1920 1424" fill="currentColor"" xmlns=" http://www.w3.org/2000/svg">
  <g opacity="0.07" clip-path="url(#clip0_34_969)">
    <path
      d="M1924.08 30.6595L1923.96 51.468C1843.05 96.7768 1759.88 136.246 1675.96 170.716C1584.36 207.639 1490.5 235.393 1397.4 263.983C1356.62 276.231 1316.61 289.316 1276.58 305.73C1231.93 323.782 1192.58 354.35 1161.59 401.615C1139.89 434.783 1123.54 472.144 1109.49 512.016C1091.53 561.853 1078.94 614.219 1064.81 665.743C1046.76 732.228 1028.72 797.879 1015.26 866.055C1002.61 928.409 990.727 990.767 977.308 1053.12C964.685 1110.48 949.769 1166.16 927.96 1218.47C889.795 1309.81 832.634 1366.08 753.425 1383.93C717.281 1392.04 681.176 1393.49 645.085 1392.45C579.821 1389.57 514.571 1384.2 449.307 1381.32C344.885 1376.55 241.177 1380.94 138.131 1403.65C125.056 1406.9 111.213 1410.15 98.1331 1414.24L15.1905 1413.75C25.9665 1409.65 35.9746 1405.55 46.7458 1402.28C147.541 1370.41 249.766 1356.85 353.464 1354.13C419.52 1352.85 484.789 1354.89 550.836 1355.28C599.219 1355.56 647.598 1356.67 696.024 1349.47C733.69 1343.86 769.853 1332.42 803.012 1309.3C846.967 1278.76 879.489 1233.17 905.153 1178.38C928.488 1127.75 944.931 1073.74 958.317 1017.21C972.499 955.702 984.378 894.176 999.329 832.668C1020.58 744.561 1043.36 657.295 1065.38 569.192C1077.95 520.988 1092.04 474.458 1110.73 430.451C1137.98 366.518 1177.42 320.135 1229.03 293.8C1247.52 284.751 1266.77 275.708 1286 269.993C1343.7 253.682 1400.62 239.031 1458.31 223.552C1571.38 193.413 1682.97 154.942 1791.57 102.303C1836.24 80.0897 1880.16 56.207 1924.84 32.3288L1924.08 30.6595Z"
      fill="currentColor""/>
<path d=" M1891.96 7.99834C1901.94 8.05651 1911.92 8.11468 1921.14 8.16837C1924.21 8.18627 1923.43 9.84644 1923.42
      12.3435C1921.88 12.3345 1920.34 13.158 1918.8 13.9813C1802.43 83.2221 1681.54 135.789 1556.91 173.352C1476.89
      197.857 1396.92 214.871 1316.18 231.88C1281.58 239.17 1246.96 248.124 1213.85 263.746C1163.02 287.589 1122.84
      329.805 1095.59 392.074C1082.36 421.962 1070.66 453.524 1062.02 485.936C1048.68 535.8 1036.86 586.506 1024.28
      637.207C1006.18 711.182 988.085 785.157 969.995 858.3C957.416 908.169 946.368 958.879 933.79 1008.75C920.428
      1061.11 901.711 1110.11 878.404 1155.75C835.694 1236.24 778.563 1287.52 704.72 1307.07C679.337 1313.58 653.192
      1319.25 627.07 1320.76C576.364 1323.8 525.667 1325.17 474.975 1325.7C382.807 1326.83 289.861 1329.62 197.62
      1343.23C129.206 1353.65 61.5362 1368.24 -4.66099 1393.66L-4.50095 1366.19C-4.50095 1366.19 -0.651354 1364.55
      1.65741 1363.73C96.309 1331.82 192.404 1315.73 289.987 1307.98C358.372 1302.55 427.51 1299.62 495.885
      1295.86C545.056 1292.82 594.222 1290.61 643.431 1280.9C681.111 1272.8 717.279 1260.53 751.201 1238.25C798.228
      1207.73 834.6 1160.49 864.108 1104.9C890.516 1054.28 909.267 999.449 924.194 942.102C941.482 874.781 958.008
      806.624 974.533 738.466C993.421 660.333 1011.54 582.196 1029.66 504.059C1041.47 455.019 1054.03 407.647 1073.49
      362.812C1098.41 304.692 1134.74 263.285 1182.5 240.257C1211.76 226.277 1241.76 218.129 1272.51 212.481C1333.25
      201.182 1394.75 191.552 1455.49 179.42C1604.67 148.659 1747.84 92.8924 1885.78 12.9565C1888.09 12.1376 1889.64
      10.4819 1891.18 8.82625L1891.96 7.99834Z" fill="currentColor""/>
<path d=" M1824.37 7.60483L1860.47 7.81513C1860.47 7.81513 1857.38 10.2943 1855.07 11.1132C1792.66 45.7091 1728.75
      75.3018 1663.32 99.8916C1544.78 144.981 1423.3 168.412 1300.34 181.846C1264.99 185.802 1229.64 189.757 1195.02
      200.376C1167.32 208.539 1140.36 221.7 1116.43 242.369C1085.55 269.658 1063.83 306.988 1047.45 350.175C1031.07
      394.195 1019.28 440.739 1009.78 488.129C982.863 626.977 947.513 762.447 912.163 897.917C896.454 957.756 877.683
      1015.91 849.73 1068.19C822.545 1120.47 789.26 1165.22 747.604 1196.61C715.203 1221.39 680.556 1236.17 643.63
      1246.78C591.319 1261.46 537.531 1266.14 483.743 1270.82C407.674 1277.03 331.609 1282.42 256.302 1289.47C190.985
      1295.75 125.638 1307.02 61.0302 1323.29C39.4926 1328.99 17.9501 1335.53 -4.35542 1341.22L-4.20508 1315.42C-4.20508
      1315.42 -1.8962 1314.6 -0.355361 1313.78C98.8847 1285.22 198.815 1269.99 300.252 1259.76C370.183 1252.68 439.34
      1246.42 509.276 1238.5C553.08 1233.77 596.141 1224.86 638.467 1210.12C693.106 1191.3 742.446 1159.12 783.455
      1106.92C822.913 1057.21 851.668 999.113 873.55 934.316C906.383 835.456 932.318 734.058 955.959 630.982C970.141
      569.47 980.489 507.103 992.373 444.744C1001.09 399.015 1011.34 353.294 1026.95 310.102C1051.93 241.161 1091.36
      196.443 1147.54 175.961C1179.1 164.492 1211.38 159.686 1244.42 156.549C1286.68 153.466 1328.94 151.215 1370.43
      147.295C1511.06 133.131 1647.23 93.9713 1778.93 29.814C1793.57 22.4079 1808.21 14.1696 1822.84 6.7635L1824.37
      7.60483Z" fill="currentColor""/>
<path d=" M-3.29143 1290.45L-3.1411 1264.65C-3.1411 1264.65 -0.0642788 1263.84 1.47158 1263.85C75.305 1245.96 149.11
      1233.08 223.662 1223.52C298.22 1213.14 373.541 1203.59 448.099 1193.2C497.294 1186 545.74 1175.46 593.457
      1158.26C698.121 1121.41 775.395 1040.29 826.052 914.062C843.199 870.879 858.053 826.018 871.376 780.315C893.311
      706.363 914.478 632.405 927.222 554.237C937.579 490.205 946.4 426.164 956.753 362.965C963.926 318.059 971.863
      273.989 985.934 231.621C1001.56 186.764 1024.04 150.271 1059.49 128.836C1074.91 119.769 1091.07 114.037 1107.22
      109.969C1144.14 101.028 1181.01 100.411 1217.86 101.458C1270.85 102.599 1323.82 106.237 1377.6 103.221C1503.59
      96.4638 1626.66 64.7185 1745.25 10.4732C1746.79 10.4822 1748.33 8.8265 1749.87 8.00307L1790.58 8.24022C1790.58
      8.24022 1787.49 10.7193 1785.95 10.7104C1767.47 19.7587 1748.98 28.8071 1730.5 37.0232C1636.57 78.0941 1541.17
      105.839 1442.79 119.416C1384.37 127.399 1325.21 131.216 1266.85 130.876C1226.91 130.644 1186.2 132.071 1146.97
      141.831C1120.05 148.333 1093.88 159.001 1070.72 178.843C1040.62 204.471 1021.21 240.982 1007.14 282.519C992.298
      325.715 983.584 371.445 975.637 417.178C965.304 477.049 954.966 537.751 943.865 597.617C928.822 674.939 906.887
      748.892 885.715 823.682C872.383 871.049 857.524 916.743 838.836 960.749C789.006 1076.99 715.606 1152.31 617.104
      1185.86C573.242 1200.59 529.408 1210.32 484.831 1215.89C404.13 1226.24 323.438 1234.92 243.504 1245.28C176.641
      1253.21 109.758 1264.48 43.6188 1279.91C29.0078 1283.15 14.3917 1287.23 -0.987394 1290.47L-3.29143 1290.45Z"
      fill="currentColor""/>
<path d=" M-3.00032 1240.51L-2.84029 1213.05C-2.84029 1213.05 0.231437 1213.06 1.76742 1213.07C87.0963 1199.42 171.657
      1185.76 256.991 1171.28C320.029 1160.82 382.295 1151.2 444.574 1139.08C490.707 1130.19 536.868 1116.31 580.765
      1095.75C667.785 1055.48 735.012 985.116 780.934 880.505C799.608 838.995 814.452 795.799 829.301 751.77C851.97
      683.648 871.577 613.843 882.756 540.66C893.118 475.796 898.882 409.24 905.409 343.521C910.308 293.608 914.439
      243.69 923.173 194.631C927.936 168.023 933.462 142.252 942.823 117.335C959.991 70.8227 987.798 43.5164 1026.25
      34.5845C1039.33 31.3312 1053.16 29.7471 1066.99 28.9952C1113.85 26.7711 1160.65 35.3674 1206.69 42.2947C1255.03
      50.0676 1303.37 57.0083 1351.75 58.1225C1442.36 60.3151 1532.3 47.5213 1620.78 19.7363C1633.86 15.6507 1646.94
      10.7328 1660.03 5.81477L1709.95 6.10561C1709.95 6.10561 1706.87 7.75248 1705.33 8.57591C1677.62 18.4028 1649.9
      29.8944 1622.2 38.889C1505.25 76.4966 1386.9 88.2925 1267.16 77.6064C1222.63 74.0175 1178.87 71.2656 1134.34
      68.509C1109.77 67.5335 1085.18 70.7196 1060.56 78.0675C1017.47 91.1343 986.565 123.417 967.832 174.914C956.906
      204.816 949.042 236.4 944.24 269.667C936.225 327.053 928.216 383.607 920.969 440.999C908.858 542.477 890.622
      640.59 860.113 736.134C842.11 794.295 824.106 852.456 799.984 906.419C763.413 987.778 714.652 1052.42 649.898
      1093.66C609.04 1120.06 565.935 1136.45 521.32 1148.68C454.398 1166.6 385.994 1175.36 318.348 1185.79C230.72
      1198.59 143.855 1212.24 56.9898 1225.88C37.0028 1229.09 17.774 1233.98 -2.22281 1238.85L-3.00032 1240.51Z"
      fill="currentColor""/>
<path d=" M800.083 1416.66C800.083 1416.66 801.623 1415.84 803.164 1415.01C867.806 1392.92 913.423 1340.74 943.816
      1265.18C962.519 1218.67 975.861 1169.64 986.136 1119.76C1000.37 1049.92 1013.83 980.081 1026.53 910.236C1040.81
      830.412 1061.24 752.289 1083.19 675.007C1098.08 624.319 1111.44 571.958 1130.16 522.957C1145.76 482.262 1164.42
      443.249 1189.18 410.931C1220.14 370.326 1257.16 343.906 1297.2 324.995C1344.94 303.631 1393.42 287.266 1442.67
      271.738C1544.24 238.203 1645.05 203.831 1744.38 159.462C1802.91 133.167 1861.44 105.208 1918.45 73.9099C1919.99
      73.0866 1921.53 72.2631 1923.84 71.4442L1923.72 92.2527C1923.72 92.2527 1920.64 93.8994 1919.87 93.8949C1876.74
      115.285 1834.37 137.512 1791.24 158.07C1688.81 206.583 1584.13 245.927 1478.7 283.601C1424.83 302.432 1371.72
      322.099 1319.34 348.43C1289.3 363.237 1260.01 382.211 1234.51 407.866C1198.98 443.451 1173.36 489.914 1152.32
      541.398C1134.4 585.409 1120.31 631.94 1106.98 678.475C1085.06 749.93 1065.44 822.232 1051.94 897.899C1039.21
      974.402 1026.47 1051.74 1012.2 1128.23C1002.66 1183.11 991.591 1237.99 975.158 1290.33C960.285 1338.52 940.065
      1381.68 909.151 1414.8C909.151 1414.8 907.606 1416.45 907.596 1418.12L800.846 1417.5L800.083 1416.66Z"
      fill="currentColor""/>
<path d=" M957.316 2.55291C957.316 2.55291 951.911 7.51564 949.593 9.99925C937.237 21.5804 927.929 37.341 920.915
      54.7799C907.675 86.3327 901.328 121.255 897.279 157.023C891.588 211.094 887.428 266.006 883.273 320.086C878.263
      389.143 873.252 458.2 863.639 526.398C852.426 605.408 831.259 679.365 806.261 751.636C791.422 794 775.815 836.36
      756.383 876.2C711.296 969.162 648.721 1032.06 570.926 1070.73C522.402 1094.58 472.386 1110.94 421.641
      1120.63C356.285 1133.57 290.175 1144 224.828 1155.28C150.26 1167.33 76.4657 1178.55 1.89827 1190.6C0.362282
      1190.59 -1.17364 1190.58 -2.70963 1190.57L-2.55929 1164.77C-2.55929 1164.77 0.512616 1164.79 2.05345
      1163.97C53.5571 1155.94 105.056 1148.75 157.327 1140.73C238.039 1128.72 318.745 1117.53 399.495 1098.86C451.791
      1086.68 503.339 1071.16 553.403 1046.48C628.121 1008.63 690.672 949.898 734.966 861.093C774.595 782.249 803.51
      696.683 825.537 606.916C843.627 533.773 850.976 458.903 854.494 382.346C857.993 309.118 860.723 235.885 864.222
      162.657C866.836 109.401 870.223 55.317 884.348 3.79259L958.075 4.22215L957.316 2.55291Z" fill="currentColor""/>
<path d=" M1013.58 1417.9L964.432 1417.62C970.663 1402.67 978.425 1388.57 983.889 1373.62C998.708 1334.58 1008.17
      1293.02 1015.33 1250.61C1028.86 1168.28 1042.4 1085.13 1054.41 1001.96C1069.58 902.163 1087.05 803.214 1118.33
      708.506C1133.97 660.32 1148.08 611.292 1167.54 565.626C1189.35 513.313 1215.74 466.855 1251.28 429.605C1279.09
      401.467 1309.93 381.67 1341.52 364.374C1393.91 336.379 1448.56 315.056 1503.21 294.565C1621.74 249.475 1739.53
      201.884 1855.07 144.292C1878.17 132.773 1900.51 121.25 1922.85 109.727L1922.72 132.2C1922.72 132.2 1918.87 133.843
      1917.33 134.666C1872.66 156.047 1827.98 179.093 1782.55 199.638C1690.15 240.718 1596.23 279.292 1503.84
      318.707C1452.25 340.881 1400.66 363.886 1350.57 392.727C1276.6 434.747 1220.13 502.672 1183.49 597.348C1170.24
      630.566 1158.51 665.457 1146.79 699.516C1126.48 759.328 1107.69 820.813 1096.56 884.841C1080.7 971.315 1070.97
      1059.49 1058.93 1147.65C1046.89 1238.31 1038.67 1330.65 1013.58 1417.9Z" fill="currentColor""/>
<path d=" M-2.40424 1138.14L-2.2539 1112.33C39.2465 1107.58 80.7469 1102.83 121.484 1097.24C203.722 1086.9 285.969
      1074.89 367.497 1054.56C419.03 1041.54 469.046 1025.18 517.575 1000.5C569.958 973.333 617.791 936.155 658.042
      882.286C685.135 845.82 707.649 804.333 725.574 759.489C752.837 693.891 777.032 627.443 790.51 555.105C803.191
      487.757 808.201 418.7 810.14 349.625C812.209 258.077 808.898 167.329 805.591 75.7496C804.964 51.6073 804.341
      26.6328 803.714 2.49043L841.345 2.70968C839.533 50.144 837.721 97.5785 836.676 145.017C836.196 227.419 836.484
      309.825 832.164 392.204C828.714 457.108 822.192 521.995 808.772 584.344C792.193 661.658 765.66 733.919 734.533
      803.657C704.179 872.566 663.904 930.597 612.197 973.579C568.981 1009.12 521.993 1032.98 472.74 1050.18C402.703
      1075.57 331.193 1090.14 258.934 1101.37C183.599 1113.42 107.51 1122.96 32.1795 1134.18C20.65 1135.77 9.12529
      1136.54 -2.40424 1138.14Z" fill="currentColor""/>
<path d=" M743.048 1.30445L772.999 1.47896C776.592 43.9506 780.18 87.2547 783.004 129.722C789.363 224.649 792.646
      320.39 786.712 416.078C782.494 480.978 775.209 545.028 757.186 606.518C740.714 665.52 718.881 721.994 693.227
      775.116C661.351 841.519 620.328 896.216 568.635 936.701C527.748 968.093 484.609 990.316 439.196 1007.53C362.228
      1036.22 283.028 1052.4 203.858 1063.59C151.586 1071.61 98.561 1077.13 46.2991 1083.48C30.1617 1085.05 14.0244
      1086.63 -2.10821 1087.36L-1.94817 1059.9C4.1957 1059.93 10.3396 1059.97 17.2563 1059.18C114.834 1052.25 211.669
      1041.16 308.566 1019.26C367.01 1006.28 423.948 988.297 479.408 960.32C533.332 932.334 582.701 895.165 623.73
      839.635C653.919 799.025 678.003 751.721 699.025 702.733C730.948 628.006 752.918 548.227 761.097 462.541C767.668
      389.331 768.099 315.253 764.686 241.985C761.312 162.058 753.329 82.104 743.806 2.97369L743.048 1.30445Z"
      fill="currentColor""/>
<path d=" M1084.24 1418.32L1050.45 1418.12C1050.45 1418.12 1050.47 1413.96 1050.48 1412.29C1056.89 1367.38 1063.29
      1322.47 1068.93 1276.72C1080.25 1180.24 1090.03 1083.74 1100.57 987.245C1115.96 851.659 1154.31 727.028 1204.93
      608.294C1231.4 546.853 1265.5 493.78 1311.04 454.924C1343.45 427.645 1377.38 405.369 1412.82 386.431C1471.37
      354.31 1531.42 328.856 1592.25 303.407C1703.12 254.944 1814 205.648 1923.38 151.349L1923.25 173.822C1923.25
      173.822 1919.4 174.632 1917.86 175.455C1876.27 195.19 1834.69 214.924 1793.1 233.826C1701.47 275.743 1609.06
      316.823 1517.42 359.572C1468.13 382.591 1419.6 408.944 1373.32 441.969C1312.4 484.898 1262.91 542.875 1227.89
      621.746C1216.22 646.649 1206.08 673.225 1195.95 698.97C1156.21 796.958 1132.57 900.866 1120.41 1010.67C1110.69
      1097.18 1104.03 1184.54 1097.38 1271.9C1094.02 1320.99 1089.13 1370.07 1085 1419.99L1084.24 1418.32Z"
      fill="currentColor""/>
<path d=" M692.361 1.0093L718.472 1.16144C721.418 22.8201 725.137 43.651 727.315 65.3052C739.798 163.597 748.437
      262.699 746.314 363.403C745.989 419.17 741.057 474.91 730.753 529.786C713.323 621.245 679.057 702.617 635.613
      777.277C606.134 827.88 569.801 868.454 527.377 899.837C495.749 923.791 461.851 941.906 427.204 956.686C357.911
      986.248 286.391 1002.48 214.128 1014.54C142.632 1026.61 70.4024 1032.85 -2.57572 1035.75L-2.40599 1006.62C88.9893
      1006.32 179.665 997.695 269.641 977.41C325.777 965.252 381.174 948.095 434.315 922.601C483.607 898.749 529.102
      867.384 568.531 822.666C627.291 755.587 666.19 670.08 695.149 577.023C715.495 512.217 721.278 442.332 723.217
      373.257C725.189 298.356 721.013 224.251 712.223 150.951C706.371 100.975 698.209 51.8177 691.588 1.83721L692.361
      1.0093Z" fill="currentColor""/>
<path d=" M1140.3 1418.64L1112.65 1418.48C1112.65 1418.48 1112.69 1411.82 1112.72 1407.66C1114.44 1376.04 1116.16
      1344.42 1117.88 1311.97C1122.26 1220.43 1126.63 1128.07 1136.38 1037.4C1143.66 973.346 1151.71 910.133 1167.43
      848.63C1184.72 781.309 1209.66 718.194 1236.13 656.753C1271.16 576.218 1319.91 513.242 1380.09 466.148C1418.67
      436.407 1459.53 410.009 1501.89 389.447C1578.14 352.435 1654.38 316.255 1730.62 280.907C1794.54 251.314 1859.22
      221.726 1923.14 191.301L1923.01 213.774C1904.53 221.99 1886.05 230.206 1868.34 238.427C1770.54 284.469 1672.73
      329.68 1574.92 377.387C1522.55 402.885 1471.69 431.722 1423.09 468.063C1373.72 505.232 1328.15 549.914 1292.48
      608.804C1266.11 651.934 1245.87 699.261 1225.62 748.252C1198.34 815.515 1178.73 886.152 1167.54 961.832C1153.94
      1054.98 1148.02 1148.17 1145.17 1242.21C1143.29 1301.3 1142.18 1360.39 1140.3 1419.48L1140.3 1418.64Z"
      fill="currentColor""/>
<path d=" M647.05 0.745269L670.089 0.879505C670.089 0.879505 670.08 2.54427 670.075 3.37659C685.684 92.5308 698.216
      182.499 702.29 274.083C705.037 329.868 704.712 385.635 699.011 441.37C691.629 522.067 670.467 595.192 638.572
      664.925C598.118 753.752 545.482 824.197 473.783 871.224C426.757 901.748 376.711 923.098 325.164 938.612C217.457
      970.447 107.562 982.292 -3.01864 979.983L-2.84406 950.019C63.9465 954.57 130.786 950.798 196.896 940.362C264.542
      929.935 330.695 912.009 395.376 883.253C486.241 842.164 559.612 771.84 610.934 663.099C634.26 614.125 654.518
      564.301 665.595 508.597C680.633 432.107 683.393 353.881 679.246 274.782C675.157 185.695 662.61 98.2228 646.987
      11.5656C647.006 8.23623 646.262 4.07014 645.514 0.736319L647.05 0.745269Z" fill="currentColor""/>
<path d=" M1188.68 1418.92L1163.34 1418.78C1163.34 1418.78 1163.36 1414.62 1163.38 1412.12C1163.57 1378.83 1163.77
      1344.7 1163.97 1311.41C1164.47 1225.67 1166.5 1140.79 1174.67 1055.93C1180.39 997.699 1187.63 940.308 1201.01
      884.617C1212.83 833.912 1232.3 787.413 1251.01 740.077C1294.65 632.123 1355.82 546.746 1436.81 485.622C1486.18
      448.454 1537.82 417.957 1590.2 390.794C1693.43 337.292 1798.92 289.629 1904.42 241.966C1910.58 239.505 1916.73
      237.044 1922.89 234.583L1922.76 257.056C1922.76 257.056 1918.92 257.866 1916.61 258.685C1853.46 287.45 1791.09
      315.387 1727.94 344.984C1660.17 377.051 1593.16 410.788 1527.64 452.025C1478.3 483.367 1431.24 518.885 1389.51
      564.422C1339.26 619.898 1300.47 687.093 1267.78 760.984C1238.98 827.405 1217.07 896.364 1205.88 972.044C1197.06
      1035.25 1190.55 1098.47 1189.41 1161.73C1188.18 1241.63 1188.48 1321.54 1188.02 1401.44C1187.98 1407.27 1187.95
      1413.09 1187.92 1418.92L1188.68 1418.92Z" fill="currentColor""/>
<path d=" M-1.13838 920.896L-0.949252 888.435C8.2569 890.153 18.2311 891.876 27.4421 892.762C94.9813 900.647 161.825
      896.042 227.95 883.11C286.385 871.797 343.327 852.984 397.261 823.333C508.21 762.384 580.268 653.764 621.052
      508.338C637.529 448.503 640.974 384.431 640.575 321.169C639.519 238.758 630.005 157.963 616.647 77.9783C612.19
      52.1489 606.959 27.1474 602.502 1.31806L625.541 1.4523C625.541 1.4523 626.275 7.28315 627.024 10.617C633.708
      49.7772 640.397 88.105 646.313 127.261C658.869 213.068 665.271 300.503 660.917 388.709C657.399 465.266 643.149
      538.432 613.568 606.513C584.764 672.935 550.624 732.666 504.273 779.009C463.327 820.389 417.078 849.252 367.806
      869.774C258.48 915.75 145.489 931.739 31.088 926.078C20.3362 926.015 8.82606 924.284 -1.91607 922.556L-1.13838
      920.896Z" fill="currentColor""/>
<path d=" M0.704556 604.607L0.995526 554.667C14.0028 563.066 27.0149 570.634 40.0222 579.033C94.3553 612.644 151.872
      627.13 211.823 619.155C360.934 599.215 456.361 434.13 463.388 282.68C466.017 226.927 464.038 171.147 457.451
      115.34C453.071 76.1928 447.15 37.8694 441.997 -0.449482L464.269 -0.31972C467.958 25.5051 472.411 52.1669 476.101
      77.9918C485.697 144.637 492.221 211.264 490.292 278.675C486.4 419.322 438.15 528.081 348.632 601.64C253.709
      680.162 151.532 685.393 47.3869 633.18C32.0708 625.599 16.7741 614.689 1.4677 605.444L0.704556 604.607Z"
      fill="currentColor""/>
<path d=" M-0.333331 782.728L-0.0714579 737.782C27.4936 752.092 55.8462 763.078 85.7686 768.247C155.583 781.139 224.764
      770.721 292.493 746.145C399.476 706.815 477.542 621.536 526.691 490.308C546.969 437.155 554.216 379.764 556.096
      320.677C558.001 257.428 552.989 194.971 544.132 133.324C537.482 88.3377 530.059 44.179 522.641 -0.812063L543.376
      -0.69125C547.11 17.6426 550.075 35.9719 553.808 54.3058C567.934 134.295 578.979 215.932 579.267 298.338C579.715
      353.276 577.086 409.03 562.956 461.387C529.206 586.045 468.745 681.415 377.015 739.146C286.053 796.882 189.175
      815.462 88.6222 805.72C58.6853 803.049 28.7823 794.551 0.434662 782.732L-0.333331 782.728Z" fill="currentColor""/>
<path d=" M0.161199 697.829L0.442469 649.554C73.12 698.254 149.826 714.516 230.572 696.675C310.544 679.661 379.162
      634.28 433.396 553.024C475.241 489.176 503.31 416.924 509.949 332.061C514.094 279.646 512.096 227.195 507.793
      174.731C502.762 115.604 493.118 57.2816 483.468 -0.207858L504.204 -0.0870445C519.098 79.907 531.688 159.888
      535.048 242.311C537.805 296.431 536.717 351.361 525.655 404.568C503.53 510.982 456.193 594.776 386.711
      656.798C341.162 697.319 290.339 720.329 236.507 732.501C154.984 752.003 75.9349 742.386 0.161199 697.829Z"
      fill="currentColor""/>
<path d=" M562.571 0.253023L584.843 0.382784C590.044 30.3783 596.013 60.3783 600.442 91.2017C613.795 172.019 622.536
      253.642 621.283 336.871C620.924 398.464 615.189 460.026 596.423 517.35C553.403 651.111 482.171 749.747 378.168
      804.91C325.012 832.901 269.615 850.058 212.721 860.547C149.678 871.833 85.9206 873.958 23.0087 862.771C15.3385
      861.062 7.66359 860.185 -0.00657172 858.475L0.216505 820.188C10.1857 822.743 19.3821 826.126 29.3563
      827.849C83.8106 840.651 139.111 840.141 194.449 832.972C257.478 824.184 318.255 806.226 376.053 772.435C474.69
      715.577 540.531 619.406 579.687 489.785C596.135 434.944 600.319 375.871 600.659 317.607C601.11 240.199 592.34
      163.57 579.726 87.7515C574.519 58.5884 569.313 29.4252 564.107 0.261972L562.571 0.253023Z" fill="currentColor""/>
<path d=" M1231.69 1419.18L1209.42 1419.05C1208.83 1388.24 1208.25 1356.61 1207.66 1325.81C1205.83 1245.06 1206.3
      1163.49 1212.91 1082.79C1216.25 1037.03 1222.66 992.119 1229.83 948.045C1241.74 881.525 1265.13 820.898 1291.58
      762.787C1338.27 659.013 1400.97 574.477 1479.67 512.508C1518.24 482.767 1557.56 456.361 1598.4 433.292C1681.63
      385.5 1767.11 345.212 1853.35 306.593C1876.45 295.907 1899.55 286.885 1921.88 277.027L1921.75 299.5C1860.91
      327.446 1800.08 353.728 1739.24 382.506C1671.47 414.574 1605.21 451.644 1541.2 496.219C1450.98 558.121 1376.76
      642.59 1321.58 755.47C1299.81 800.291 1278.81 845.117 1264.7 894.144C1243.54 967.269 1234.65 1042.96 1230.36
      1120.35C1226.13 1186.91 1227.29 1252.68 1228.43 1319.27C1229 1353.4 1230.34 1386.71 1230.91 1420.84L1231.69
      1419.18Z" fill="currentColor""/>
<path d=" M398.99 -0.70014L422.029 -0.565903C424.98 20.2605 427.926 41.9192 430.109 62.7411C437.444 121.882 442.476
      181.009 440.591 240.929C438.72 298.351 429.184 353.232 406.617 403.875C349.797 533.393 248.813 597.729 136.813
      575.435C102.292 568.575 69.3607 552.568 37.2119 534.069C24.9678 526.506 12.7188 519.776 0.474679 512.213L0.75595
      463.937C19.1294 474.033 36.7302 484.956 55.1085 494.219C86.5038 510.217 117.914 523.718 151.681 528.077C226.89
      537.671 292.339 508.919 344.221 435.973C388.355 374.635 411.053 301.519 413.084 216.63C414.162 163.365 411.401
      110.077 405.562 57.6039C403.375 37.6144 400.414 18.4526 398.222 -0.704615L398.99 -0.70014Z" fill="currentColor""/>
<path d=" M1922.4 318.649L1922.27 341.954C1922.27 341.954 1918.42 342.764 1916.88 343.588C1881.46 359.196 1845.28
      373.136 1809.86 389.577C1735.93 423.273 1664.28 462.809 1594.88 509.85C1496.18 577.529 1414.24 669.444 1354.38
      793.118C1324.84 853.709 1299.14 915.154 1287.21 985.836C1277.68 1039.88 1271.99 1093.95 1270.13 1148.88C1267.4
      1222.11 1269.28 1294.54 1271.16 1367.8C1271.06 1384.45 1271.73 1401.93 1272.4 1418.58L1251.66 1418.46C1251.66
      1418.46 1251.69 1414.3 1251.7 1412.63C1250.37 1377.67 1249.81 1341.87 1248.47 1306.9C1246.64 1226.99 1247.1
      1147.91 1254.47 1068.05C1263.47 974.044 1283.95 885.933 1322.06 804.583C1358.6 727.386 1400.49 656.878 1454.59
      598.096C1500.97 547.591 1552.65 508.771 1607.37 474.963C1687.54 424.656 1769.96 383.517 1853.89 346.55C1876.99
      336.696 1899.31 327.67 1922.41 317.816L1922.4 318.649Z" fill="currentColor""/>
<path d=" M1.7713 421.493L2.04772 374.049C2.04772 374.049 8.17714 376.582 11.2394 378.265C43.4076 393.435 74.8076 408.6
      108.546 417.953C143.052 427.31 178.36 430.845 212.992 418.562C277.634 396.464 318.667 340.102 344.466
      262.01C357.76 221.302 360.316 178.033 361.341 133.924C361.603 88.9777 358.793 44.0135 355.215 -0.955153L379.022
      -0.816443C380.476 13.3423 381.934 26.6686 383.388 40.8273C388.458 93.296 391.988 146.588 389.373 199.844C386.749
      254.765 376.47 305.48 353.158 351.956C308.874 439.097 248.699 485.359 168.07 483.224C135.047 483.032 102.855
      472.024 71.4496 457.69C48.473 446.736 25.5062 434.117 1.7616 423.157L1.7713 421.493Z" fill="currentColor""/>
<path d=" M1310.79 1419.64L1290.83 1419.52C1289.5 1382.89 1288.18 1346.26 1286.86 1309.62C1285.02 1229.71 1284.72
      1149.8 1293.63 1069.94C1300.14 1007.55 1312.01 947.691 1333.84 891.218C1354.9 836.404 1380.54 784.947 1410.01
      736.841C1463.52 648.09 1529.96 581.055 1604.77 527.387C1678.8 474.547 1757.38 433.386 1836.69 398.057C1864.41
      385.733 1892.89 374.246 1921.38 362.758L1921.23 387.728C1921.23 387.728 1918.92 388.547 1917.38 389.371C1816.55
      427.072 1719.5 475.616 1626.96 540.002C1525.17 610.992 1443.19 709.566 1382.53 839.062C1358.42 890.528 1337.38
      942.845 1325.52 1001.87C1312.05 1072.55 1305.49 1144.09 1305.84 1215.68C1305.44 1283.93 1308.89 1351.37 1310.03
      1419.63L1310.79 1419.64Z" fill="currentColor""/>
<path d=" M1921.87 410.206L1921.71 437.673C1921.71 437.673 1917.1 437.646 1915.56 439.302C1830.13 468.77 1747.71 510.74
      1669.06 565.218C1564.95 637.86 1480.65 738.917 1418.45 870.069C1386.57 937.305 1363.1 1009.58 1353.43
      1088.6C1346.14 1153.48 1343.45 1219.23 1344.61 1284.16C1345.11 1329.11 1347.16 1374.07 1348.43 1419.86L1329.23
      1419.74C1329.23 1419.74 1329.26 1413.09 1328.52 1409.75C1327.15 1379.78 1326.56 1349.81 1325.2 1319.84C1323.34
      1243.25 1323.79 1166.67 1331.91 1090.97C1338.39 1033.58 1349.46 977.875 1368.97 925.549C1429.01 770.247 1515.73
      649.226 1631.43 564.167C1707.02 508.838 1786.37 466.85 1867.98 432.366C1885.69 424.978 1903.39 418.422 1921.09
      411.866L1921.87 410.206Z" fill="currentColor""/>
<path d=" M1921.57 461.811L1921.4 490.943L1919.86 490.934C1847.55 512.154 1778.22 546.71 1712.68 591.276C1600.88 666.37
      1513.47 774.068 1448.9 915.194C1423.23 971.646 1402.92 1030.63 1394.09 1095.5C1385.28 1157.87 1381.84 1221.11
      1382.24 1284.38C1381.98 1329.32 1384.02 1374.28 1385.29 1420.07L1365.32 1419.95C1365.32 1419.95 1365.35 1414.96
      1365.36 1412.46C1365.46 1395.82 1364.03 1378.33 1363.36 1361.68C1360.74 1284.25 1360.42 1206.84 1367.78
      1130.3C1373.48 1073.74 1382.25 1018.85 1400.98 967.354C1448.58 838.615 1515.26 730.795 1604.07 646.411C1667.4
      586.85 1736 543.134 1808.41 506.932C1845.38 488.835 1883.1 473.24 1920.81 460.974L1921.57 461.811Z"
      fill="currentColor""/>
<path d=" M1458.25 1420.5L1438.28 1420.38C1438.32 1412.89 1438.37 1405.4 1438.41 1397.91C1437.27 1329.65 1436.9 1261.39
      1443.44 1193.17C1448.38 1137.43 1457.9 1084.22 1475.86 1033.55C1518.02 915.597 1578.51 816.065 1656.54
      735.78C1734.58 655.496 1821.68 601.899 1920.87 581.668L1920.64 620.788C1920.64 620.788 1916.03 620.761 1913.73
      620.747C1863 628.776 1815.25 650.139 1769 679.835C1663.38 748.306 1582.91 851.883 1523 983.88C1500.44 1033.69
      1480.93 1086.02 1471.38 1143.39C1456.26 1234.87 1455.72 1326.42 1458.26 1418.83L1458.25 1420.5Z"
      fill="currentColor""/>
<path d=" M1921.24 517.578L1921.05 550.039C1921.05 550.039 1914.14 550.831 1911.06 552.478C1732.58 603.877 1592.08
      727.914 1493.35 931.268C1471.59 975.257 1452.89 1021.76 1441.08 1072.47C1427.67 1131.49 1421.17 1193.04 1420.05
      1254.63C1419.73 1309.57 1420.17 1364.51 1420.62 1419.44L1401.42 1419.33C1398.08 1333.58 1396.27 1248.67 1403.68
      1162.98C1408.61 1108.9 1416.59 1056.51 1433.78 1006.67C1474.39 890.372 1532.57 791.659 1607.54 709.692C1670.15
      640.97 1741.87 591.446 1818.11 555.266C1851.23 538.811 1885.1 525.691 1919.71 517.569L1921.24 517.578Z"
      fill="currentColor""/>
<path d=" M1920.42 658.243L1920.16 703.189C1912.48 703.145 1904.8 703.1 1897.11 704.72C1838.69 714.368 1785.53 743.191
      1736.9 785.358C1671.29 840.745 1618.64 913.686 1575.91 998.339C1549.49 1051.46 1526.12 1107.92 1513.47
      1169.44C1503.19 1220.99 1499.04 1273.4 1497.19 1326.66C1497.02 1357.46 1496.83 1389.09 1495.88 1419.88L1475.92
      1419.77C1475.92 1419.77 1475.95 1414.77 1475.96 1412.28C1475.51 1358.17 1475.82 1304.07 1479.97 1250.82C1484.14
      1195.07 1491.36 1141.01 1508.56 1089.51C1545.3 979.016 1598.85 884.438 1669.19 805.773C1724.08 743.665 1786.56
      698.249 1856.59 672.854C1878.14 665.488 1899.68 658.955 1921.96 658.252L1920.42 658.243Z" fill="currentColor""/>
<path d=" M1919.92 744.806L1919.64 793.082C1919.64 793.082 1917.33 793.068 1916.57 793.064C1856.64 796.044 1801.96
      822.361 1752.56 865.357C1694.66 915.794 1648.2 981.28 1610.12 1057.64C1586.82 1103.28 1567.33 1152.28 1555.51
      1204.65C1543.68 1257.02 1539.53 1311.1 1536.91 1365.19C1536.8 1383.5 1535.93 1401.8 1535.05 1420.94L1514.31
      1420.82C1514.31 1420.82 1514.34 1415.83 1514.35 1413.33C1516.13 1372.56 1516.37 1331.77 1518.91 1291C1522.28
      1239.41 1529.49 1187.85 1545.13 1140.49C1583.44 1024.19 1640.07 926.296 1716.57 847.667C1762.15 801.32 1813.04
      766.657 1869.96 752.006C1886.88 747.943 1903.78 747.209 1920.69 744.811L1919.92 744.806Z" fill="currentColor" />
    <path
      d="M306.831 -1.23705L332.943 -1.08491C332.943 -1.08491 332.894 7.23843 332.87 11.4001C334.941 51.3658 336.244 91.3271 333.708 131.266C331.118 180.36 322.403 226.09 300.657 267.582C271.912 324.015 232.531 360.41 181.013 370.93C150.255 377.41 120.322 373.906 90.4243 364.576C60.5262 355.246 31.4106 343.423 1.52211 332.428L1.78883 286.649C1.78883 286.649 6.39675 286.676 7.92304 288.35C41.6466 300.2 75.3798 310.384 110.688 313.92C142.924 317.437 174.431 314.291 203.726 295.317C252.288 264.803 283.304 214.209 296.757 146.033C304.675 105.293 306.448 64.5178 305.923 22.8964C305.971 14.573 306.015 7.08185 306.063 -1.24152L306.831 -1.23705Z"
      fill="currentColor""/>
<path d=" M1575.75 1421.18L1553.48 1421.05C1554.4 1395.25 1555.31 1369.45 1557 1343.66C1560.35 1296.24 1566 1249.66
      1579.31 1204.79C1612.97 1095.94 1664.2 1003.85 1734.51 931.009C1773.14 891.28 1815.56 861.562 1864.02
      848.526C1881.71 843.635 1900.92 842.082 1918.6 838.856L1918.29 892.958C1913.68 892.931 1909.07 892.904 1904.47
      892.878C1859.12 898.44 1817.54 916.51 1778.95 948.747C1696.38 1017.35 1639.75 1113.58 1602.2 1230.72C1582.65
      1291.37 1578.43 1356.27 1574.98 1422.01L1575.75 1421.18Z" fill="currentColor" />
    <path
      d="M1918.78 941.238L1918.45 997.837C1918.45 997.837 1914.61 997.815 1912.3 997.801C1880.79 1001.78 1851.54 1013.26 1823.02 1031.41C1781.39 1058.63 1745.83 1096.72 1716.38 1143.16C1670.66 1213.64 1637.17 1293.35 1625.1 1386.51C1623.5 1398.15 1621.89 1410.63 1620.29 1422.27L1596.48 1422.13C1596.48 1422.13 1596.49 1420.47 1596.49 1419.64C1599.85 1370.55 1604.75 1321.47 1618.07 1274.93C1643.95 1183.52 1685.12 1104.69 1741.56 1040.09C1780.22 995.367 1823.41 963.156 1874.19 948.47C1888.8 944.393 1904.17 943.65 1918.78 941.238Z"
      fill="currentColor""/>
<path d=" M281.488 -1.38477C281.241 41.0645 277.921 83.4959 266.164 124.213C252.837 170.748 229.579 208.069 196.405
      233.679C171.718 252.68 144.022 260.842 115.596 262.341C79.4914 263.796 44.9757 256.103 10.4696 246.746C8.16565
      246.733 5.09853 245.883 2.79944 245.037L3.08071 196.761C3.08071 196.761 4.61672 196.77 4.61187 197.603C32.2303
      202.758 60.6216 207.085 89.0517 204.753C119.786 202.435 149.79 193.454 176.038 170.301C223.123 129.789 244.208
      69.9816 249.996 -0.735871L280.715 -0.556889L281.488 -1.38477Z" fill="currentColor" />
    <path
      d="M1917.81 1107.71C1909.34 1110.15 1900.89 1111.77 1892.42 1115.05C1835.47 1135.53 1789.13 1178.54 1751.16 1236.58C1715.52 1291.31 1688.28 1352.75 1674.05 1422.59L1644.86 1422.42C1652.14 1359.2 1670.92 1301.04 1697.34 1247.09C1729.99 1179.86 1771.02 1124.33 1825 1086.36C1854.31 1065.72 1885.1 1053.41 1917.38 1048.61L1917.04 1107.7L1917.81 1107.71Z"
      fill="currentColor""/>
<path d=" M218.513 -1.75165C215.329 17.3742 209.847 35.6543 201.302 52.2519C173.315 110.355 133.191 142.583 81.6772
      152.271C57.8405 157.127 33.2697 156.151 9.47183 154.348C7.16787 154.334 4.86391 154.321 3.32794 154.312L3.61891
      104.372C26.6585 104.506 49.7175 101.311 72.0327 93.9495C105.119 83.3215 133.661 61.8463 156.894 28.687C163.092
      19.5671 168.535 7.94556 173.97 -2.01118L217.745 -1.75613L218.513 -1.75165Z" fill="currentColor" />
    <path
      d="M1605.5 6.32963C1593.96 9.59187 1582.41 13.6865 1570.88 16.1164C1498.58 34.0073 1424.81 41.0686 1351.1 37.3097C1301.96 35.3587 1253.63 26.7534 1205.3 16.4834C1188.43 13.0556 1170.79 8.79111 1153.14 5.35883C1151.61 5.34989 1150.08 4.50856 1148.55 3.66727L1279.87 4.43242C1279.87 4.43242 1282.94 5.2827 1284.47 6.12398C1355.82 18.1929 1427.24 19.4412 1498.72 9.8693C1504.87 9.07276 1511.79 7.44843 1517.94 6.65189L1604.72 7.15751L1605.5 6.32963Z"
      fill="currentColor""/>
<path d=" M207.197 1413.21C217.19 1411.6 227.952 1410 237.945 1408.39C312.489 1400.5 386.22 1400.1 460.681
      1406.36C488.319 1408.19 515.179 1411.67 542.812 1414.33C544.348 1414.34 546.652 1414.35 548.183 1415.19L207.197
      1413.21Z" fill="currentColor" />
  </g>
  <defs>
    <clipPath id="clip0_34_969">
      <rect width="1920" height="1415" fill="currentColor"" transform=" translate(1915.97 1423.16) rotate(-179.666)" />
    </clipPath>
  </defs>
</svg>